<?xml version="1.0" encoding="utf-8"?>
<!-- Generator: Adobe Illustrator 16.0.0, SVG Export Plug-In . SVG Version: 6.00 Build 0)  -->
<!DOCTYPE svg PUBLIC "-//W3C//DTD SVG 1.1//EN" "http://www.w3.org/Graphics/SVG/1.1/DTD/svg11.dtd">
<svg version="1.1" id="Layer_1" xmlns="http://www.w3.org/2000/svg" xmlns:xlink="http://www.w3.org/1999/xlink" x="0px" y="0px"
	 width="1286px" height="222px" viewBox="0 0 1286 222" enable-background="new 0 0 1286 222" xml:space="preserve">
<title>gdg-logo</title>
<desc>Created with Sketch.</desc>
<g id="Page-1">
	<g id="gdg-logo" transform="translate(0.000000, -32.000000)">
		<g id="XMLID_261_" transform="translate(0.000000, 32.000000)">
			<polygon id="XMLID_259_" fill="#757575" points="32.3,0 0,0 92.3,160 108.5,132 			"/>
			<path id="XMLID_258_" fill="#757575" d="M120.9,91L68.3,0H36.1l74.3,128.8l10.5-18.2c1.7-2.8,2.801-6.2,2.801-9.8
				C123.6,97.2,122.6,93.9,120.9,91L120.9,91z"/>
			<polygon id="XMLID_257_" fill="#757575" points="56.3,104.1 0.9,200 33.2,200 72.5,132 			"/>
			<polygon id="XMLID_256_" fill="#757575" points="74.3,135.3 37,200 69.2,200 90.5,163.2 			"/>
		</g>
	</g>
</g>
<g>
	<path fill="#757575" d="M358.376,103.936c0,21.601-6.409,38.81-19.224,51.624c-14.401,15.266-33.338,22.896-56.808,22.896
		c-22.464,0-41.472-7.776-57.024-23.328c-15.552-15.552-23.328-34.702-23.328-57.456c0-22.751,7.776-41.904,23.328-57.456
		c15.552-15.552,34.56-23.328,57.024-23.328c11.374,0,22.103,2.018,32.184,6.048c10.078,4.033,18.36,9.72,24.84,17.064
		l-14.256,14.256c-4.752-5.758-10.908-10.26-18.468-13.5c-7.56-3.24-15.66-4.86-24.3-4.86c-16.848,0-31.104,5.832-42.768,17.496
		c-11.522,11.809-17.28,26.568-17.28,44.28s5.758,32.475,17.28,44.28c11.664,11.664,25.92,17.496,42.768,17.496
		c15.407,0,28.222-4.32,38.448-12.96c10.223-8.641,16.126-20.521,17.712-35.641h-56.16V92.272h74.952
		C358.014,96.305,358.376,100.193,358.376,103.936z"/>
	<path fill="#757575" d="M382.566,175V20.344h47.304c23.615,0,42.586,7.128,56.916,21.384
		c14.327,14.256,21.492,32.906,21.492,55.944c0,23.187-7.166,41.87-21.492,56.052C472.456,167.909,453.485,175,429.87,175H382.566z
		 M402.438,39.352v116.64h27.432c17.999,0,32.184-5.147,42.552-15.444c10.368-10.294,15.552-24.587,15.552-42.876
		c0-18.144-5.184-32.4-15.552-42.768c-10.368-10.368-24.553-15.552-42.552-15.552H402.438z"/>
	<path fill="#757575" d="M680.645,103.936c0,21.601-6.408,38.81-19.223,51.624c-14.402,15.266-33.339,22.896-56.809,22.896
		c-22.464,0-41.472-7.776-57.024-23.328c-15.552-15.552-23.328-34.702-23.328-57.456c0-22.751,7.776-41.904,23.328-57.456
		c15.552-15.552,34.56-23.328,57.024-23.328c11.374,0,22.104,2.018,32.185,6.048c10.078,4.033,18.359,9.72,24.839,17.064
		l-14.256,14.256c-4.751-5.758-10.908-10.26-18.468-13.5c-7.56-3.24-15.659-4.86-24.3-4.86c-16.848,0-31.104,5.832-42.768,17.496
		c-11.522,11.809-17.28,26.568-17.28,44.28s5.758,32.475,17.28,44.28c11.664,11.664,25.92,17.496,42.768,17.496
		c15.407,0,28.222-4.32,38.448-12.96c10.222-8.641,16.126-20.521,17.712-35.641h-56.161V92.272h74.952
		C680.283,96.305,680.645,100.193,680.645,103.936z"/>
	<path fill="#757575" d="M777.194,178.456c-11.664,0-21.746-3.169-30.24-9.504c-8.498-6.335-14.473-15.12-17.928-26.353
		l18.791-7.775c4.895,16.416,14.689,24.624,29.377,24.624c8.062,0,14.58-2.842,19.549-8.532c4.967-5.687,7.451-13.068,7.451-22.14
		V20.344h19.871v106.704c0,15.984-4.211,28.549-12.635,37.692C803.006,173.887,791.592,178.456,777.194,178.456z"/>
	<path fill="#757575" d="M889.295,65.704c14.688,0,26.277,3.925,34.775,11.772c8.496,7.85,12.744,18.613,12.744,32.292V175h-19.008
		v-14.688h-0.863c-8.209,12.097-19.154,18.145-32.832,18.145c-11.664,0-21.422-3.456-29.268-10.368
		c-7.852-6.912-11.773-15.552-11.773-25.92c0-10.941,4.139-19.656,12.42-26.136c8.279-6.48,19.332-9.721,33.156-9.721
		c11.807,0,21.525,2.16,29.16,6.48v-4.536c0-6.912-2.736-12.777-8.207-17.604c-5.475-4.823-11.881-7.236-19.225-7.236
		c-11.09,0-19.871,4.681-26.352,14.04L846.528,86.44C856.172,72.616,870.428,65.704,889.295,65.704z M863.592,142.6
		c0,5.185,2.193,9.504,6.588,12.96c4.391,3.456,9.537,5.185,15.443,5.185c8.35,0,15.801-3.095,22.355-9.288
		c6.551-6.189,9.828-13.463,9.828-21.816c-6.193-4.894-14.832-7.344-25.92-7.344c-8.066,0-14.795,1.944-20.195,5.832
		S863.592,136.842,863.592,142.6z"/>
	<path fill="#757575" d="M1014.358,178.456c-7.775,0-14.871-1.657-21.275-4.968c-6.41-3.312-11.342-7.702-14.797-13.177h-0.863
		L978.285,175v46.656h-19.871V69.16h19.008v14.688h0.863c3.455-5.471,8.387-9.862,14.797-13.176
		c6.404-3.311,13.5-4.968,21.275-4.968c13.965,0,25.775,5.474,35.424,16.416c9.936,11.09,14.904,24.408,14.904,39.96
		c0,15.697-4.969,29.019-14.904,39.96C1040.133,172.985,1028.323,178.456,1014.358,178.456z M1011.117,160.312
		c9.504,0,17.496-3.598,23.977-10.8c6.479-7.054,9.719-16.2,9.719-27.432c0-11.087-3.24-20.229-9.719-27.432
		c-6.48-7.199-14.473-10.8-23.977-10.8c-9.648,0-17.713,3.601-24.191,10.8c-6.34,7.202-9.504,16.345-9.504,27.432
		c0,11.231,3.164,20.449,9.504,27.647C993.405,156.785,1001.469,160.312,1011.117,160.312z"/>
	<path fill="#757575" d="M1123.004,65.704c14.688,0,26.277,3.925,34.775,11.772c8.496,7.85,12.744,18.613,12.744,32.292V175h-19.008
		v-14.688h-0.863c-8.209,12.097-19.154,18.145-32.832,18.145c-11.664,0-21.422-3.456-29.268-10.368
		c-7.852-6.912-11.773-15.552-11.773-25.92c0-10.941,4.139-19.656,12.42-26.136c8.279-6.48,19.332-9.721,33.156-9.721
		c11.807,0,21.525,2.16,29.16,6.48v-4.536c0-6.912-2.736-12.777-8.207-17.604c-5.475-4.823-11.881-7.236-19.225-7.236
		c-11.09,0-19.871,4.681-26.352,14.04l-17.496-11.016C1089.881,72.616,1104.137,65.704,1123.004,65.704z M1097.301,142.6
		c0,5.185,2.193,9.504,6.588,12.96c4.391,3.456,9.537,5.185,15.443,5.185c8.35,0,15.801-3.095,22.355-9.288
		c6.551-6.189,9.828-13.463,9.828-21.816c-6.193-4.894-14.832-7.344-25.92-7.344c-8.066,0-14.795,1.944-20.195,5.832
		S1097.301,136.842,1097.301,142.6z"/>
	<path fill="#757575" d="M1192.987,69.16h19.008v14.688h0.863c3.025-5.184,7.668-9.504,13.934-12.96
		c6.264-3.456,12.777-5.184,19.547-5.184c12.961,0,22.93,3.709,29.916,11.124c6.982,7.418,10.477,17.965,10.477,31.644V175h-19.873
		v-65.232c-0.432-17.279-9.146-25.919-26.135-25.919c-7.922,0-14.547,3.207-19.873,9.612c-5.328,6.409-7.992,14.077-7.992,23.004
		V175h-19.871V69.16z"/>
</g>
</svg>
