<?xml version="1.0" encoding="utf-8"?>
<!-- Generator: Adobe Illustrator 16.0.0, SVG Export Plug-In . SVG Version: 6.00 Build 0)  -->
<!DOCTYPE svg PUBLIC "-//W3C//DTD SVG 1.1//EN" "http://www.w3.org/Graphics/SVG/1.1/DTD/svg11.dtd">
<svg version="1.1" xmlns="http://www.w3.org/2000/svg" xmlns:xlink="http://www.w3.org/1999/xlink" x="0px" y="0px" width="1286px"
	 height="222px" viewBox="0 0 1286 222" enable-background="new 0 0 1286 222" xml:space="preserve">
<g id="Layer_1">
	<title>gdg-logo</title>
	<desc>Created with Sketch.</desc>
	<g id="Page-1">
		<g id="gdg-logo" transform="translate(0.000000, -32.000000)">
			<g id="XMLID_261_" transform="translate(0.000000, 32.000000)">
				<polygon id="XMLID_259_" fill="#757575" points="32.3,0 0,0 92.3,160 108.5,132 				"/>
				<path id="XMLID_258_" fill="#757575" d="M120.9,91L68.3,0H36.1l74.3,128.8l10.5-18.2c1.7-2.8,2.802-6.2,2.802-9.8
					C123.6,97.2,122.6,93.9,120.9,91L120.9,91z"/>
				<polygon id="XMLID_257_" fill="#757575" points="56.3,104.1 0.9,200 33.2,200 72.5,132 				"/>
				<polygon id="XMLID_256_" fill="#757575" points="74.3,135.3 37,200 69.2,200 90.5,163.2 				"/>
			</g>
		</g>
	</g>
</g>
<g id="Layer_2">
	<g>
		<path fill="#757575" d="M359.324,102.902c0,21.2-6.29,38.09-18.868,50.668c-14.135,14.982-32.721,22.473-55.756,22.473
			c-22.048,0-40.704-7.633-55.968-22.896c-15.265-15.264-22.896-34.059-22.896-56.392c0-22.33,7.632-41.128,22.896-56.392
			c15.264-15.264,33.92-22.896,55.968-22.896c11.163,0,21.693,1.981,31.588,5.936c9.892,3.958,18.021,9.54,24.38,16.748
			l-13.992,13.992c-4.664-5.651-10.706-10.07-18.126-13.25c-7.42-3.18-15.369-4.77-23.85-4.77c-16.536,0-30.528,5.724-41.976,17.172
			c-11.31,11.59-16.96,26.076-16.96,43.46c0,17.384,5.65,31.873,16.96,43.46c11.447,11.447,25.439,17.172,41.976,17.172
			c15.121,0,27.699-4.24,37.736-12.721c10.033-8.479,15.827-20.14,17.384-34.979H284.7V91.455h73.564
			C358.97,95.413,359.324,99.229,359.324,102.902z"/>
		<path fill="#757575" d="M383.067,172.65V20.858h46.429c23.177,0,41.797,6.996,55.861,20.988
			c14.062,13.992,21.095,32.297,21.095,54.908c0,22.757-7.033,41.095-21.095,55.014c-14.064,13.923-32.685,20.882-55.861,20.882
			H383.067z M402.571,39.514v114.48h26.925c17.665,0,31.588-5.051,41.764-15.158c10.176-10.103,15.264-24.131,15.264-42.082
			c0-17.808-5.088-31.8-15.264-41.976c-10.176-10.176-24.099-15.264-41.764-15.264H402.571z"/>
		<path fill="#757575" d="M675.626,102.902c0,21.2-6.29,38.09-18.868,50.668c-14.135,14.982-32.721,22.473-55.756,22.473
			c-22.048,0-40.704-7.633-55.968-22.896c-15.265-15.264-22.896-34.059-22.896-56.392c0-22.33,7.632-41.128,22.896-56.392
			c15.264-15.264,33.92-22.896,55.968-22.896c11.163,0,21.693,1.981,31.588,5.936c9.892,3.958,18.021,9.54,24.38,16.748
			l-13.992,13.992c-4.664-5.651-10.706-10.07-18.126-13.25c-7.42-3.18-15.369-4.77-23.85-4.77c-16.536,0-30.528,5.724-41.976,17.172
			c-11.31,11.59-16.96,26.076-16.96,43.46c0,17.384,5.65,31.873,16.96,43.46c11.447,11.447,25.439,17.172,41.976,17.172
			c15.121,0,27.699-4.24,37.736-12.721c10.033-8.479,15.827-20.14,17.384-34.979h-55.12V91.455h73.564
			C675.272,95.413,675.626,99.229,675.626,102.902z"/>
		<path fill="#757575" d="M789.256,39.514V172.65h-19.504V39.514h-42.4V20.858h104.304v18.656H789.256z"/>
		<path fill="#757575" d="M825.721,120.711c0-15.97,5.016-29.184,15.053-39.645c10.176-10.458,22.965-15.688,38.372-15.688
			c15.402,0,28.123,5.23,38.159,15.688c10.177,10.461,15.265,23.674,15.265,39.645c0,16.111-5.088,29.328-15.265,39.644
			c-10.036,10.461-22.757,15.688-38.159,15.688c-15.407,0-28.196-5.228-38.372-15.688
			C830.737,149.896,825.721,136.684,825.721,120.711z M845.226,120.711c0,11.166,3.249,20.213,9.752,27.135
			c6.499,6.928,14.555,10.389,24.168,10.389c9.609,0,17.665-3.461,24.168-10.389c6.499-6.922,9.752-15.969,9.752-27.135
			c0-11.024-3.253-19.998-9.752-26.924c-6.646-7.066-14.701-10.6-24.168-10.6c-9.471,0-17.526,3.534-24.168,10.6
			C848.475,100.713,845.226,109.687,845.226,120.711z"/>
		<path fill="#757575" d="M1040.691,172.65h-23.532l-32.436-48.973l-15.9,15.688v33.284h-19.504V20.858h19.504v93.492l44.944-45.58
			h25.016v0.848l-40.492,40.28l42.4,61.904V172.65z"/>
		<path fill="#757575" d="M1144.568,68.771l-65.084,149.672h-20.14l24.168-52.364l-42.824-97.308h21.2l30.952,74.624h0.424
			l30.104-74.624H1144.568z"/>
		<path fill="#757575" d="M1147.111,120.711c0-15.97,5.016-29.184,15.053-39.645c10.176-10.458,22.965-15.688,38.372-15.688
			c15.402,0,28.123,5.23,38.159,15.688c10.177,10.461,15.265,23.674,15.265,39.645c0,16.111-5.088,29.328-15.265,39.644
			c-10.036,10.461-22.757,15.688-38.159,15.688c-15.407,0-28.196-5.228-38.372-15.688
			C1152.126,149.896,1147.111,136.684,1147.111,120.711z M1166.615,120.711c0,11.166,3.249,20.213,9.752,27.135
			c6.499,6.928,14.555,10.389,24.168,10.389c9.609,0,17.665-3.461,24.168-10.389c6.499-6.922,9.752-15.969,9.752-27.135
			c0-11.024-3.253-19.998-9.752-26.924c-6.646-7.066-14.701-10.6-24.168-10.6c-9.471,0-17.526,3.534-24.168,10.6
			C1169.865,100.713,1166.615,109.687,1166.615,120.711z"/>
	</g>
</g>
</svg>
