<?xml version="1.0" encoding="utf-8"?>
<!-- Generator: Adobe Illustrator 16.0.0, SVG Export Plug-In . SVG Version: 6.00 Build 0)  -->
<!DOCTYPE svg PUBLIC "-//W3C//DTD SVG 1.1//EN" "http://www.w3.org/Graphics/SVG/1.1/DTD/svg11.dtd">
<svg version="1.1" xmlns="http://www.w3.org/2000/svg" xmlns:xlink="http://www.w3.org/1999/xlink" x="0px" y="0px" width="839px"
	 height="214px" viewBox="0 0 839 214" enable-background="new 0 0 839 214" xml:space="preserve">
<g id="Layer_1">
	<title>logo-light</title>
	<desc>Created with Sketch.</desc>
	<g id="Page-1">
		<g id="logo-light">
			<g id="XMLID_60_">
				<g id="XMLID_61_">
					<g id="XMLID_62_">
						<path id="XMLID_106_" fill="none" d="M122.5,90.6L70.1,0H0l57.8,100L0,200h70.1l52.4-90.6C125.8,103.6,125.8,96.4,122.5,90.6z
							"/>
						<polygon id="XMLID_105_" fill="#FFC107" points="92.4,159.8 75.8,131.1 35.9,200 70.1,200 92.9,160.6 						"/>
						<path id="XMLID_104_" fill="none" d="M122.5,90.6L70.1,0H0l57.8,100L0,200h70.1l52.4-90.6C125.8,103.6,125.8,96.4,122.5,90.6z
							"/>
						<polygon id="XMLID_103_" fill="#0F9D58" points="57.8,100 75.8,131.1 35.9,200 0,200 						"/>
						<path id="XMLID_102_" fill="none" d="M122.5,90.6L70.1,0H0l57.8,100L0,200h70.1l52.4-90.6C125.8,103.6,125.8,96.4,122.5,90.6z
							"/>
						<polygon id="XMLID_101_" opacity="0.2" fill="#BF360C" enable-background="new    " points="70.1,198.4 36.8,198.4 35.9,200 
							70.1,200 92.9,160.6 92.4,159.8 						"/>
						<path id="XMLID_100_" fill="none" d="M122.5,90.6L70.1,0H0l57.8,100L0,200h70.1l52.4-90.6C125.8,103.6,125.8,96.4,122.5,90.6z
							"/>
						<polygon id="XMLID_99_" opacity="0.2" fill="#263238" enable-background="new    " points="0.9,198.4 0,200 35.9,200 
							36.8,198.4 						"/>
						<path id="XMLID_98_" fill="none" d="M122.5,90.6L70.1,0H0l57.8,100L0,200h70.1l52.4-90.6C125.8,103.6,125.8,96.4,122.5,90.6z"
							/>
						<polygon id="XMLID_96_" opacity="0.2" fill="#FFFFFF" enable-background="new    " points="0,200 0.9,200 58.3,100.8 
							57.8,100 						"/>
						<path id="XMLID_94_" fill="none" d="M122.5,90.6L70.1,0H0l57.8,100L0,200h70.1l52.4-90.6C125.8,103.6,125.8,96.4,122.5,90.6z"
							/>
						
							<radialGradient id="XMLID_2_" cx="-174.9319" cy="517.5566" r="3.247" gradientTransform="matrix(21.3 0 0 -21.3 3818.6707 11183.9238)" gradientUnits="userSpaceOnUse">
							<stop  offset="0" style="stop-color:#BF360C;stop-opacity:0.2"/>
							<stop  offset="1" style="stop-color:#BF360C;stop-opacity:0.02"/>
						</radialGradient>
						<polygon id="XMLID_92_" fill="url(#XMLID_2_)" points="92.9,160.6 75.8,131.1 71.6,138.3 						"/>
						<path id="XMLID_90_" fill="none" d="M122.5,90.6L70.1,0H0l57.8,100L0,200h70.1l52.4-90.6C125.8,103.6,125.8,96.4,122.5,90.6z"
							/>
						
							<radialGradient id="XMLID_3_" cx="-174.3069" cy="518.7178" r="2.6311" gradientTransform="matrix(26.5 0 0 -26.5 4711.5723 13906.4072)" gradientUnits="userSpaceOnUse">
							<stop  offset="0" style="stop-color:#263238;stop-opacity:0.2"/>
							<stop  offset="1" style="stop-color:#263238;stop-opacity:0.02"/>
						</radialGradient>
						<polygon id="XMLID_89_" fill="url(#XMLID_3_)" points="71.6,138.3 75.8,131.1 57.8,100 49.3,114.8 						"/>
						<path id="XMLID_88_" fill="none" d="M122.5,90.6L70.1,0H0l57.8,100L0,200h70.1l52.4-90.6C125.8,103.6,125.8,96.4,122.5,90.6z"
							/>
						<g id="XMLID_85_">
							<g id="XMLID_86_">
								<polygon id="XMLID_87_" fill="#4285F4" points="35.9,0 0,0 92.9,160.6 110.8,129.5 								"/>
							</g>
						</g>
						<path id="XMLID_84_" fill="none" d="M122.5,90.6L70.1,0H0l57.8,100L0,200h70.1l52.4-90.6C125.8,103.6,125.8,96.4,122.5,90.6z"
							/>
						<path id="XMLID_83_" fill="#DB4437" d="M122.5,109.4c3.399-5.8,3.399-13,0-18.8L70.1,0H35.9l74.9,129.5L122.5,109.4
							L122.5,109.4z"/>
						<path id="XMLID_82_" fill="none" d="M122.5,90.6L70.1,0H0l57.8,100L0,200h70.1l52.4-90.6C125.8,103.6,125.8,96.4,122.5,90.6z"
							/>
						<polygon id="XMLID_71_" opacity="0.2" fill="#1A237E" enable-background="new    " points="110.8,129.5 110.4,128.7 92.9,159 
							0.9,0 0,0 92.9,160.6 						"/>
						<path id="XMLID_69_" fill="none" d="M122.5,90.6L70.1,0H0l57.8,100L0,200h70.1l52.4-90.6C125.8,103.6,125.8,96.4,122.5,90.6z"
							/>
						<path id="XMLID_67_" opacity="0.2" fill="#FFFFFF" enable-background="new    " d="M70.1,1.6l52.4,90.6
							c1.5,2.7,2.3,5.6,2.5,8.6c0.1-3.5-0.7-7-2.5-10.2L70.1,0H0L0.9,1.6H70.1z"/>
						<path id="XMLID_66_" fill="none" d="M122.5,90.6L70.1,0H0l57.8,100L0,200h70.1l52.4-90.6C125.8,103.6,125.8,96.4,122.5,90.6z"
							/>
						<path id="XMLID_65_" opacity="0.2" fill="#3E2723" enable-background="new    " d="M110.8,129.5l11.6-20.1
							c1.801-3.101,2.601-6.7,2.5-10.2c-0.1,3-0.899,5.9-2.5,8.6l-12.1,20.9L110.8,129.5z"/>
						<path id="XMLID_64_" fill="none" d="M122.5,90.6L70.1,0H0l57.8,100L0,200h70.1l52.4-90.6C125.8,103.6,125.8,96.4,122.5,90.6z"
							/>
						
							<radialGradient id="XMLID_4_" cx="-175.9988" cy="525.9648" r="1.6805" gradientTransform="matrix(124.975 0 0 -124.975 21993.8203 65733.9375)" gradientUnits="userSpaceOnUse">
							<stop  offset="0" style="stop-color:#FFFFFF;stop-opacity:0.1"/>
							<stop  offset="1" style="stop-color:#FFFFFF;stop-opacity:0"/>
						</radialGradient>
						<path id="XMLID_63_" fill="url(#XMLID_4_)" d="M122.5,90.6L70.1,0H0l57.8,100L0,200h70.1l52.4-90.6
							C125.8,103.6,125.8,96.4,122.5,90.6z"/>
					</g>
				</g>
			</g>
		</g>
	</g>
</g>
<g id="Layer_2">
	<g>
		<path fill="#FAFAFA" d="M272.427,52.597c0,10.7-3.175,19.225-9.523,25.573c-7.134,7.562-16.515,11.342-28.141,11.342
			c-11.128,0-20.544-3.852-28.248-11.556c-7.704-7.704-11.556-17.19-11.556-28.462c0-11.27,3.852-20.758,11.556-28.462
			s17.12-11.556,28.248-11.556c5.634,0,10.949,1,15.943,2.996c4.992,1.998,9.095,4.815,12.305,8.453l-7.062,7.062
			c-2.354-2.852-5.404-5.083-9.149-6.688c-3.745-1.605-7.757-2.408-12.037-2.408c-8.346,0-15.408,2.889-21.186,8.667
			c-5.708,5.85-8.56,13.161-8.56,21.935s2.852,16.087,8.56,21.935c5.778,5.778,12.84,8.667,21.186,8.667
			c7.632,0,13.98-2.14,19.046-6.42c5.064-4.28,7.988-10.165,8.774-17.655h-27.82v-9.202h37.129
			C272.248,48.817,272.427,50.743,272.427,52.597z"/>
		<path fill="#FAFAFA" d="M284.411,87.8V11.188h23.433c11.698,0,21.096,3.531,28.194,10.593
			c7.097,7.062,10.646,16.301,10.646,27.713c0,11.486-3.549,20.741-10.646,27.767c-7.099,7.027-16.497,10.54-28.194,10.54H284.411z
			 M294.255,20.604v57.78h13.589c8.916,0,15.943-2.55,21.079-7.65c5.136-5.099,7.704-12.18,7.704-21.24
			c0-8.988-2.568-16.05-7.704-21.186c-5.136-5.136-12.163-7.704-21.079-7.704H294.255z"/>
		<path fill="#FAFAFA" d="M432.071,52.597c0,10.7-3.176,19.225-9.523,25.573c-7.134,7.562-16.515,11.342-28.141,11.342
			c-11.128,0-20.544-3.852-28.248-11.556c-7.704-7.704-11.556-17.19-11.556-28.462c0-11.27,3.852-20.758,11.556-28.462
			s17.12-11.556,28.248-11.556c5.634,0,10.949,1,15.943,2.996c4.992,1.998,9.095,4.815,12.305,8.453l-7.062,7.062
			c-2.354-2.852-5.404-5.083-9.149-6.688c-3.745-1.605-7.757-2.408-12.037-2.408c-8.346,0-15.408,2.889-21.186,8.667
			c-5.708,5.85-8.56,13.161-8.56,21.935s2.852,16.087,8.56,21.935c5.778,5.778,12.84,8.667,21.186,8.667
			c7.632,0,13.98-2.14,19.046-6.42c5.064-4.28,7.988-10.165,8.774-17.655h-27.82v-9.202h37.129
			C431.891,48.817,432.071,50.743,432.071,52.597z"/>
		<path fill="#FAFAFA" d="M467.592,87.8V11.188h23.433c11.698,0,21.096,3.531,28.194,10.593
			c7.098,7.062,10.646,16.301,10.646,27.713c0,11.486-3.549,20.741-10.646,27.767c-7.099,7.027-16.496,10.54-28.194,10.54H467.592z
			 M477.436,20.604v57.78h13.589c8.916,0,15.943-2.55,21.079-7.65c5.136-5.099,7.704-12.18,7.704-21.24
			c0-8.988-2.568-16.05-7.704-21.186c-5.136-5.136-12.163-7.704-21.079-7.704H477.436z"/>
		<path fill="#FAFAFA" d="M561.751,89.512c-7.704,0-14.054-2.638-19.046-7.918c-4.994-5.278-7.49-11.947-7.49-20.009
			c0-7.988,2.424-14.641,7.276-19.956c4.85-5.313,11.056-7.972,18.617-7.972c7.774,0,13.964,2.515,18.564,7.543
			c4.602,5.029,6.902,12.074,6.902,21.133l-0.107,1.07h-41.195c0.143,5.136,1.854,9.274,5.137,12.412
			c3.28,3.14,7.204,4.708,11.77,4.708c6.276,0,11.198-3.138,14.766-9.416l8.774,4.28c-2.354,4.424-5.617,7.883-9.79,10.379
			C571.755,88.263,567.03,89.512,561.751,89.512z M546.022,55.272h30.067c-0.286-3.638-1.766-6.651-4.44-9.042
			c-2.675-2.389-6.26-3.584-10.754-3.584c-3.71,0-6.901,1.142-9.576,3.424C548.644,48.354,546.878,51.42,546.022,55.272z"/>
		<path fill="#FAFAFA" d="M619.959,87.8h-9.844l-21.187-52.43h10.7l15.408,40.66h0.214l15.622-40.66h10.486L619.959,87.8z"/>
		<path fill="#FAFAFA" d="M659.334,54.951V87.8h-9.844V11.188h44.726v9.416h-34.882v25.145h31.458v9.202H659.334z"/>
		<path fill="#FAFAFA" d="M723.961,89.512c-7.704,0-14.054-2.638-19.046-7.918c-4.994-5.278-7.49-11.947-7.49-20.009
			c0-7.988,2.424-14.641,7.276-19.956c4.85-5.313,11.056-7.972,18.617-7.972c7.774,0,13.964,2.515,18.564,7.543
			c4.602,5.029,6.902,12.074,6.902,21.133l-0.107,1.07h-41.195c0.143,5.136,1.854,9.274,5.137,12.412
			c3.28,3.14,7.204,4.708,11.77,4.708c6.276,0,11.198-3.138,14.766-9.416l8.774,4.28c-2.354,4.424-5.617,7.883-9.79,10.379
			C733.965,88.263,729.24,89.512,723.961,89.512z M708.232,55.272h30.067c-0.286-3.638-1.766-6.651-4.44-9.042
			c-2.675-2.389-6.26-3.584-10.754-3.584c-3.71,0-6.901,1.142-9.576,3.424C710.854,48.354,709.088,51.42,708.232,55.272z"/>
		<path fill="#FAFAFA" d="M798.432,73.248c0,4.565-1.998,8.417-5.992,11.556c-3.996,3.138-9.024,4.708-15.087,4.708
			c-5.28,0-9.916-1.374-13.91-4.12c-3.996-2.745-6.848-6.366-8.56-10.86l8.773-3.745c1.284,3.14,3.156,5.583,5.618,7.33
			c2.461,1.749,5.152,2.622,8.078,2.622c3.138,0,5.76-0.677,7.864-2.033c2.104-1.354,3.156-2.959,3.156-4.815
			c0-3.352-2.567-5.813-7.703-7.383l-8.988-2.247c-10.202-2.568-15.301-7.49-15.301-14.766c0-4.778,1.942-8.613,5.831-11.502
			c3.887-2.889,8.862-4.333,14.927-4.333c4.636,0,8.827,1.107,12.572,3.317c3.745,2.212,6.366,5.173,7.864,8.881l-8.773,3.638
			c-1-2.21-2.622-3.94-4.869-5.189c-2.247-1.247-4.761-1.873-7.543-1.873c-2.568,0-4.869,0.642-6.901,1.926
			c-2.033,1.284-3.05,2.854-3.05,4.708c0,2.996,2.817,5.136,8.453,6.42l7.918,2.033C793.224,60.087,798.432,65.33,798.432,73.248z"
			/>
		<path fill="#FAFAFA" d="M827.214,88.656c-4.28,0-7.829-1.319-10.646-3.959c-2.818-2.638-4.264-6.313-4.334-11.021V44.358h-9.201
			V35.37h9.201V19.32h9.845v16.05h12.84v8.988h-12.84v26.108c0,3.496,0.677,5.868,2.033,7.116c1.354,1.249,2.889,1.872,4.601,1.872
			c0.784,0,1.552-0.088,2.301-0.267c0.749-0.177,1.444-0.41,2.086-0.696l3.104,8.774C833.634,88.191,830.638,88.656,827.214,88.656z
			"/>
		<path fill="#FAFAFA" d="M217.429,193.512c-5.778,0-10.772-1.569-14.98-4.708c-4.21-3.138-7.169-7.49-8.881-13.054l9.309-3.853
			c2.424,8.133,7.276,12.198,14.552,12.198c3.994,0,7.222-1.407,9.683-4.227c2.461-2.817,3.692-6.474,3.692-10.968v-53.714h9.844
			v52.858c0,7.918-2.086,14.143-6.259,18.672C230.216,191.248,224.561,193.512,217.429,193.512z"/>
		<path fill="#FAFAFA" d="M272.961,137.658c7.276,0,13.017,1.944,17.227,5.831c4.208,3.889,6.313,9.221,6.313,15.996V191.8h-9.416
			v-7.276h-0.428c-4.066,5.992-9.488,8.988-16.264,8.988c-5.778,0-10.611-1.712-14.499-5.136c-3.889-3.424-5.832-7.704-5.832-12.84
			c0-5.421,2.05-9.737,6.152-12.947c4.101-3.21,9.577-4.815,16.425-4.815c5.848,0,10.663,1.07,14.445,3.21v-2.247
			c0-3.424-1.356-6.329-4.066-8.72c-2.712-2.39-5.885-3.585-9.523-3.585c-5.494,0-9.844,2.319-13.054,6.955l-8.667-5.457
			C256.553,141.082,263.615,137.658,272.961,137.658z M260.228,175.75c0,2.567,1.086,4.708,3.263,6.42
			c2.175,1.712,4.725,2.568,7.651,2.568c4.136,0,7.828-1.533,11.074-4.602c3.245-3.066,4.869-6.669,4.869-10.807
			c-3.068-2.425-7.348-3.639-12.84-3.639c-3.996,0-7.33,0.964-10.005,2.89C261.565,170.507,260.228,172.897,260.228,175.75z"/>
		<path fill="#FAFAFA" d="M334.913,193.512c-3.852,0-7.366-0.821-10.54-2.461c-3.175-1.64-5.617-3.815-7.329-6.527h-0.428
			l0.428,7.276v23.112H307.2V139.37h9.416v7.275h0.428c1.712-2.71,4.154-4.885,7.329-6.526c3.173-1.641,6.688-2.461,10.54-2.461
			c6.918,0,12.768,2.711,17.548,8.132c4.922,5.493,7.383,12.091,7.383,19.795c0,7.775-2.461,14.375-7.383,19.795
			C347.681,190.802,341.832,193.512,334.913,193.512z M333.308,184.523c4.708,0,8.667-1.782,11.877-5.35
			c3.21-3.494,4.815-8.025,4.815-13.589c0-5.492-1.605-10.021-4.815-13.589c-3.21-3.566-7.169-5.351-11.877-5.351
			c-4.78,0-8.774,1.784-11.984,5.351c-3.14,3.567-4.708,8.097-4.708,13.589c0,5.563,1.568,10.13,4.708,13.696
			C324.534,182.776,328.529,184.523,333.308,184.523z"/>
		<path fill="#FAFAFA" d="M388.733,137.658c7.276,0,13.017,1.944,17.227,5.831c4.208,3.889,6.313,9.221,6.313,15.996V191.8h-9.416
			v-7.276h-0.428c-4.066,5.992-9.488,8.988-16.264,8.988c-5.778,0-10.611-1.712-14.499-5.136c-3.889-3.424-5.832-7.704-5.832-12.84
			c0-5.421,2.05-9.737,6.152-12.947c4.101-3.21,9.577-4.815,16.425-4.815c5.848,0,10.663,1.07,14.445,3.21v-2.247
			c0-3.424-1.356-6.329-4.066-8.72c-2.712-2.39-5.885-3.585-9.523-3.585c-5.494,0-9.844,2.319-13.054,6.955l-8.667-5.457
			C372.325,141.082,379.387,137.658,388.733,137.658z M376,175.75c0,2.567,1.086,4.708,3.263,6.42
			c2.175,1.712,4.725,2.568,7.651,2.568c4.136,0,7.828-1.533,11.074-4.602c3.245-3.066,4.869-6.669,4.869-10.807
			c-3.068-2.425-7.348-3.639-12.84-3.639c-3.996,0-7.33,0.964-10.005,2.89C377.338,170.507,376,172.897,376,175.75z"/>
		<path fill="#FAFAFA" d="M423.401,139.37h9.416v7.275h0.428c1.498-2.567,3.799-4.708,6.901-6.42
			c3.104-1.712,6.33-2.567,9.684-2.567c6.42,0,11.358,1.837,14.819,5.51c3.459,3.675,5.189,8.899,5.189,15.676V191.8h-9.844v-32.314
			c-0.214-8.56-4.53-12.84-12.947-12.84c-3.924,0-7.205,1.589-9.844,4.762c-2.64,3.175-3.959,6.974-3.959,11.396V191.8h-9.844
			V139.37z"/>
		<path fill="#FAFAFA" d="M549.872,182.384v9.416h-46.651v-9.844l18.938-19.153c6.349-6.49,10.735-11.358,13.161-14.605
			c2.425-3.245,3.638-6.65,3.638-10.219c0-3.21-1.248-5.955-3.744-8.238c-2.498-2.283-5.708-3.424-9.631-3.424
			c-3.354,0-6.242,0.999-8.667,2.996c-2.426,1.997-3.995,4.423-4.708,7.275l-8.987-3.638c1.426-4.495,4.173-8.293,8.238-11.396
			c4.066-3.104,8.845-4.654,14.339-4.654c6.634,0,12.161,2.032,16.585,6.099c4.422,4.065,6.634,9.06,6.634,14.979
			c0,7.062-3.889,14.696-11.663,22.898l-21.4,21.507H549.872z"/>
		<path fill="#FAFAFA" d="M559.287,155.206c0-11.128,2.745-20.294,8.239-27.499c5.492-7.204,12.554-10.807,21.186-10.807
			c8.631,0,15.692,3.637,21.187,10.914c5.492,7.205,8.238,16.335,8.238,27.392c0,10.985-2.746,20.152-8.238,27.499
			c-5.494,7.205-12.556,10.807-21.187,10.807c-8.632,0-15.693-3.602-21.186-10.807C562.032,175.358,559.287,166.191,559.287,155.206
			z M608.079,155.206c0-8.416-1.784-15.336-5.35-20.758c-3.496-5.421-8.169-8.132-14.018-8.132c-5.85,0-10.522,2.711-14.017,8.132
			c-3.568,5.422-5.351,12.342-5.351,20.758c0,8.418,1.782,15.373,5.351,20.865c3.494,5.35,8.167,8.024,14.017,8.024
			c5.849,0,10.521-2.71,14.018-8.132C606.295,170.472,608.079,163.552,608.079,155.206z"/>
		<path fill="#FAFAFA" d="M653.874,118.611V191.8h-9.844v-60.99l-14.23,6.206l-3.745-8.346l21.507-10.059H653.874z"/>
		<path fill="#FAFAFA" d="M714.541,128.67l-35.523,64.842l-8.774-4.494l33.919-60.99h-37.021l0.214-9.416h47.187V128.67z"/>
	</g>
</g>
</svg>
