<?xml version="1.0" encoding="utf-8"?>
<!-- Generator: Adobe Illustrator 16.0.0, SVG Export Plug-In . SVG Version: 6.00 Build 0)  -->
<!DOCTYPE svg PUBLIC "-//W3C//DTD SVG 1.1//EN" "http://www.w3.org/Graphics/SVG/1.1/DTD/svg11.dtd">
<svg version="1.1" id="Layer_1" xmlns="http://www.w3.org/2000/svg" xmlns:xlink="http://www.w3.org/1999/xlink" x="0px" y="0px"
	 width="839px" height="214px" viewBox="0 0 839 214" enable-background="new 0 0 839 214" xml:space="preserve">
<g id="Layer_1_1_">
	
		<image overflow="visible" opacity="0.75" width="156" height="231" xlink:href="142AD29380426AD5.png"  transform="matrix(1 0 0 1 -12.9998 -13.5)">
	</image>
	<g>
		<g>
			<g id="Page-1_9_">
				<g id="logo-light_9_">
					<g id="XMLID_358_">
						<g id="XMLID_359_">
							<g id="XMLID_360_">
								<polygon id="XMLID_387_" fill="#FFC107" points="92.4,159.8 75.8,131.1 35.9,200 70.1,200 92.9,160.6 								"/>
								<polygon id="XMLID_385_" fill="#0F9D58" points="57.8,100 75.8,131.1 35.9,200 0,200 								"/>
								<polygon id="XMLID_383_" opacity="0.2" fill="#BF360C" enable-background="new    " points="70.1,198.4 36.8,198.4 
									35.9,200 70.1,200 92.9,160.6 92.4,159.8 								"/>
								<polygon id="XMLID_381_" opacity="0.2" fill="#263238" enable-background="new    " points="0.9,198.4 0,200 35.9,200 
									36.8,198.4 								"/>
								<polygon id="XMLID_379_" opacity="0.2" fill="#FFFFFF" enable-background="new    " points="0,200 0.9,200 58.3,100.8 
									57.8,100 								"/>
								
									<radialGradient id="XMLID_2_" cx="-350.8508" cy="18.9077" r="3.247" gradientTransform="matrix(21.3 0 0 21.3 7565.748 -242.7656)" gradientUnits="userSpaceOnUse">
									<stop  offset="0" style="stop-color:#BF360C;stop-opacity:0.2"/>
									<stop  offset="1" style="stop-color:#BF360C;stop-opacity:0.02"/>
								</radialGradient>
								<polygon id="XMLID_377_" fill="url(#XMLID_2_)" points="92.9,160.6 75.8,131.1 71.6,138.3 								"/>
								
									<radialGradient id="XMLID_3_" cx="-350.2415" cy="15.9878" r="2.6311" gradientTransform="matrix(26.5 0 0 26.5 9373.8379 -263.2812)" gradientUnits="userSpaceOnUse">
									<stop  offset="0" style="stop-color:#263238;stop-opacity:0.2"/>
									<stop  offset="1" style="stop-color:#263238;stop-opacity:0.02"/>
								</radialGradient>
								<polygon id="XMLID_375_" fill="url(#XMLID_3_)" points="71.6,138.3 75.8,131.1 57.8,100 49.3,114.8 								"/>
								<g id="XMLID_371_">
									<g id="XMLID_372_">
										<polygon id="XMLID_373_" fill="#4285F4" points="35.9,0 0,0 92.9,160.6 110.8,129.5 										"/>
									</g>
								</g>
								<path id="XMLID_369_" fill="#DB4437" d="M122.5,109.4c3.398-5.8,3.398-13,0-18.8L70.1,0H35.9l74.9,129.5L122.5,109.4
									L122.5,109.4z"/>
								<polygon id="XMLID_367_" opacity="0.2" fill="#1A237E" enable-background="new    " points="110.8,129.5 110.4,128.7 
									92.9,159 0.9,0 0,0 92.9,160.6 								"/>
								<path id="XMLID_365_" opacity="0.2" fill="#FFFFFF" enable-background="new    " d="M70.1,1.6l52.4,90.6
									c1.5,2.7,2.3,5.6,2.5,8.6c0.1-3.5-0.7-7-2.5-10.2L70.1,0H0L0.9,1.6H70.1z"/>
								<path id="XMLID_363_" opacity="0.2" fill="#3E2723" enable-background="new    " d="M110.8,129.5l11.6-20.1
									c1.802-3.102,2.602-6.7,2.5-10.2c-0.1,3-0.898,5.9-2.5,8.6l-12.1,20.9L110.8,129.5z"/>
								
									<radialGradient id="XMLID_4_" cx="-351.9851" cy="3.0625" r="1.6806" gradientTransform="matrix(124.975 0 0 124.975 43987.6953 -381.3125)" gradientUnits="userSpaceOnUse">
									<stop  offset="0" style="stop-color:#FFFFFF;stop-opacity:0.1"/>
									<stop  offset="1" style="stop-color:#FFFFFF;stop-opacity:0"/>
								</radialGradient>
								<path id="XMLID_361_" fill="url(#XMLID_4_)" d="M122.5,90.6L70.1,0H0l57.8,100L0,200h70.1l52.4-90.6
									C125.8,103.6,125.8,96.4,122.5,90.6z"/>
							</g>
						</g>
					</g>
				</g>
			</g>
		</g>
	</g>
</g>
<g id="Layer_2">
	
		<image overflow="visible" opacity="0.75" width="673" height="112" xlink:href="142AD29380426ADC.png"  transform="matrix(1 0 0 1 175.0002 -4.5)">
	</image>
	<g>
		<g>
			<g>
				<path fill="#FAFAFA" d="M266.427,52.597c0,10.7-3.175,19.225-9.523,25.573c-7.134,7.562-16.515,11.342-28.141,11.342
					c-11.128,0-20.544-3.852-28.248-11.556s-11.556-17.19-11.556-28.462c0-11.27,3.852-20.758,11.556-28.462
					c7.704-7.704,17.12-11.556,28.248-11.556c5.634,0,10.949,1,15.943,2.996c4.991,1.998,9.095,4.815,12.305,8.453l-7.062,7.062
					c-2.354-2.852-5.403-5.083-9.148-6.688s-7.757-2.408-12.037-2.408c-8.346,0-15.408,2.889-21.186,8.667
					c-5.708,5.85-8.561,13.161-8.561,21.935c0,8.774,2.853,16.087,8.561,21.935c5.777,5.778,12.84,8.667,21.186,8.667
					c7.632,0,13.98-2.14,19.046-6.42c5.064-4.28,7.988-10.165,8.774-17.655h-27.82v-9.202h37.129
					C266.248,48.817,266.427,50.743,266.427,52.597z"/>
				<path fill="#FAFAFA" d="M278.411,87.8V11.188h23.433c11.698,0,21.096,3.531,28.194,10.593
					c7.097,7.062,10.646,16.301,10.646,27.713c0,11.486-3.549,20.741-10.646,27.767c-7.1,7.027-16.497,10.54-28.194,10.54
					L278.411,87.8L278.411,87.8z M288.255,20.604v57.78h13.589c8.916,0,15.943-2.55,21.079-7.65
					c5.136-5.099,7.704-12.18,7.704-21.24c0-8.988-2.568-16.05-7.704-21.186c-5.136-5.136-12.163-7.704-21.079-7.704H288.255z"/>
				<path fill="#FAFAFA" d="M426.071,52.597c0,10.7-3.176,19.225-9.522,25.573c-7.134,7.562-16.515,11.342-28.142,11.342
					c-11.128,0-20.544-3.852-28.247-11.556c-7.704-7.704-11.557-17.19-11.557-28.462c0-11.27,3.853-20.758,11.557-28.462
					c7.703-7.704,17.119-11.556,28.247-11.556c5.635,0,10.949,1,15.943,2.996c4.992,1.998,9.095,4.815,12.305,8.453l-7.062,7.062
					c-2.354-2.852-5.404-5.083-9.149-6.688s-7.757-2.408-12.037-2.408c-8.346,0-15.407,2.889-21.186,8.667
					c-5.708,5.85-8.56,13.161-8.56,21.935c0,8.774,2.852,16.087,8.56,21.935c5.778,5.778,12.84,8.667,21.186,8.667
					c7.633,0,13.98-2.14,19.047-6.42c5.063-4.28,7.987-10.165,8.773-17.655h-27.82v-9.202h37.129
					C425.891,48.817,426.071,50.743,426.071,52.597z"/>
				<path fill="#FAFAFA" d="M461.592,87.8V11.188h23.433c11.698,0,21.096,3.531,28.194,10.593
					c7.098,7.062,10.646,16.301,10.646,27.713c0,11.486-3.549,20.741-10.646,27.767c-7.1,7.027-16.496,10.54-28.194,10.54
					L461.592,87.8L461.592,87.8z M471.436,20.604v57.78h13.589c8.916,0,15.943-2.55,21.079-7.65
					c5.136-5.099,7.704-12.18,7.704-21.24c0-8.988-2.568-16.05-7.704-21.186c-5.136-5.136-12.163-7.704-21.079-7.704H471.436z"/>
				<path fill="#FAFAFA" d="M555.75,89.512c-7.703,0-14.054-2.638-19.046-7.918c-4.993-5.278-7.489-11.947-7.489-20.009
					c0-7.988,2.424-14.641,7.275-19.956c4.851-5.313,11.057-7.972,18.617-7.972c7.774,0,13.964,2.515,18.564,7.543
					c4.602,5.029,6.901,12.074,6.901,21.133l-0.106,1.07h-41.195c0.143,5.136,1.854,9.274,5.137,12.412
					c3.28,3.14,7.204,4.708,11.771,4.708c6.275,0,11.198-3.138,14.766-9.416l8.774,4.28c-2.354,4.424-5.617,7.883-9.79,10.379
					C565.755,88.263,561.03,89.512,555.75,89.512z M540.022,55.272h30.067c-0.286-3.638-1.767-6.651-4.44-9.042
					c-2.675-2.389-6.26-3.584-10.754-3.584c-3.71,0-6.901,1.142-9.576,3.424C542.644,48.354,540.878,51.42,540.022,55.272z"/>
				<path fill="#FAFAFA" d="M613.959,87.8h-9.845l-21.187-52.43h10.7l15.407,40.66h0.215l15.621-40.66h10.486L613.959,87.8z"/>
				<path fill="#FAFAFA" d="M653.334,54.951V87.8h-9.845V11.188h44.727v9.416h-34.882v25.145h31.457v9.202H653.334z"/>
				<path fill="#FAFAFA" d="M717.961,89.512c-7.704,0-14.055-2.638-19.047-7.918c-4.993-5.278-7.489-11.947-7.489-20.009
					c0-7.988,2.424-14.641,7.275-19.956c4.851-5.313,11.057-7.972,18.617-7.972c7.774,0,13.964,2.515,18.564,7.543
					c4.602,5.029,6.901,12.074,6.901,21.133l-0.106,1.07h-41.195c0.144,5.136,1.854,9.274,5.137,12.412
					c3.28,3.14,7.204,4.708,11.771,4.708c6.275,0,11.198-3.138,14.766-9.416l8.774,4.28c-2.354,4.424-5.617,7.883-9.79,10.379
					C727.965,88.263,723.24,89.512,717.961,89.512z M702.232,55.272h30.067c-0.286-3.638-1.767-6.651-4.44-9.042
					c-2.675-2.389-6.26-3.584-10.754-3.584c-3.71,0-6.901,1.142-9.576,3.424C704.854,48.354,703.088,51.42,702.232,55.272z"/>
				<path fill="#FAFAFA" d="M792.432,73.248c0,4.565-1.998,8.417-5.992,11.556c-3.996,3.138-9.023,4.708-15.087,4.708
					c-5.28,0-9.916-1.374-13.91-4.12c-3.996-2.745-6.848-6.366-8.56-10.86l8.772-3.745c1.284,3.14,3.156,5.583,5.618,7.33
					c2.461,1.749,5.152,2.622,8.078,2.622c3.138,0,5.76-0.677,7.864-2.033c2.104-1.354,3.155-2.959,3.155-4.815
					c0-3.352-2.566-5.813-7.702-7.383l-8.988-2.247c-10.202-2.568-15.301-7.49-15.301-14.766c0-4.778,1.941-8.613,5.831-11.502
					c3.887-2.889,8.861-4.333,14.927-4.333c4.636,0,8.827,1.107,12.572,3.317c3.745,2.212,6.365,5.173,7.863,8.881l-8.772,3.638
					c-1-2.21-2.622-3.94-4.869-5.189c-2.247-1.247-4.761-1.873-7.543-1.873c-2.568,0-4.869,0.642-6.901,1.926
					c-2.033,1.284-3.05,2.854-3.05,4.708c0,2.996,2.817,5.136,8.453,6.42l7.918,2.033C787.224,60.087,792.432,65.33,792.432,73.248z
					"/>
				<path fill="#FAFAFA" d="M821.214,88.656c-4.28,0-7.829-1.319-10.646-3.959c-2.817-2.638-4.264-6.313-4.334-11.021V44.358h-9.201
					V35.37h9.201V19.32h9.845v16.05h12.841v8.988h-12.841v26.108c0,3.496,0.678,5.868,2.033,7.116
					c1.354,1.249,2.889,1.872,4.602,1.872c0.783,0,1.552-0.088,2.301-0.267c0.749-0.177,1.443-0.41,2.086-0.696l3.104,8.774
					C827.634,88.191,824.638,88.656,821.214,88.656z"/>
			</g>
		</g>
	</g>
</g>
<g>
	
		<image overflow="visible" opacity="0.75" width="553" height="134" xlink:href="142AD29380426ADD.png"  transform="matrix(1 0 0 1 178.0002 91.5)">
	</image>
	<g>
		<g>
			<path fill="#FAFAFA" d="M223.76,114.72v69.08h-10.12v-69.08h-22v-9.68h54.12v9.68H223.76z"/>
			<path fill="#FAFAFA" d="M242.681,156.85c0-8.286,2.602-15.143,7.81-20.57c5.28-5.426,11.916-8.14,19.91-8.14
				c7.992,0,14.592,2.714,19.8,8.14c5.28,5.428,7.92,12.284,7.92,20.57c0,8.36-2.64,15.218-7.92,20.57
				c-5.208,5.428-11.808,8.14-19.8,8.14c-7.994,0-14.63-2.712-19.91-8.14C245.283,171.994,242.681,165.138,242.681,156.85z
				 M252.801,156.85c0,5.794,1.686,10.488,5.06,14.08c3.373,3.594,7.552,5.391,12.54,5.391c4.986,0,9.167-1.797,12.54-5.391
				c3.373-3.592,5.06-8.286,5.06-14.08c0-5.72-1.688-10.376-5.06-13.97c-3.448-3.666-7.627-5.5-12.54-5.5
				c-4.914,0-9.094,1.834-12.54,5.5C254.487,146.474,252.801,151.13,252.801,156.85z"/>
			<path fill="#FAFAFA" d="M354.221,183.8h-12.21l-16.83-25.41l-8.25,8.14V183.8h-10.12v-78.76h10.12v48.51l23.32-23.649h12.98
				v0.439l-21.01,20.9l22,32.119V183.8z"/>
			<path fill="#FAFAFA" d="M408.12,129.9l-33.77,77.659h-10.45l12.54-27.17L354.22,129.9h11l16.06,38.719h0.22l15.62-38.719H408.12z
				"/>
			<path fill="#FAFAFA" d="M409.44,156.85c0-8.286,2.602-15.143,7.81-20.57c5.279-5.426,11.916-8.14,19.91-8.14
				c7.992,0,14.592,2.714,19.799,8.14c5.281,5.428,7.92,12.284,7.92,20.57c0,8.36-2.639,15.218-7.92,20.57
				c-5.207,5.428-11.807,8.14-19.799,8.14c-7.994,0-14.631-2.712-19.91-8.14C412.042,171.994,409.44,165.138,409.44,156.85z
				 M419.561,156.85c0,5.794,1.686,10.488,5.059,14.08c3.373,3.594,7.553,5.391,12.541,5.391c4.986,0,9.166-1.797,12.539-5.391
				c3.373-3.592,5.061-8.286,5.061-14.08c0-5.72-1.688-10.376-5.061-13.97c-3.447-3.666-7.627-5.5-12.539-5.5
				c-4.914,0-9.094,1.834-12.541,5.5C421.246,146.474,419.561,151.13,419.561,156.85z"/>
			<path fill="#FAFAFA" d="M544.519,174.119v9.681h-47.96v-10.12l19.47-19.689c6.526-6.673,11.036-11.678,13.53-15.016
				c2.492-3.336,3.739-6.837,3.739-10.505c0-3.3-1.283-6.122-3.85-8.47c-2.567-2.346-5.868-3.52-9.9-3.52
				c-3.447,0-6.417,1.027-8.909,3.079c-2.494,2.054-4.108,4.548-4.841,7.48l-9.239-3.74c1.466-4.62,4.29-8.524,8.47-11.715
				s9.092-4.785,14.74-4.785c6.819,0,12.502,2.09,17.05,6.271c4.546,4.18,6.82,9.313,6.82,15.399c0,7.261-3.998,15.108-11.99,23.54
				l-22,22.109H544.519z"/>
			<path fill="#FAFAFA" d="M554.197,146.18c0-11.439,2.822-20.862,8.47-28.27c5.646-7.406,12.906-11.11,21.78-11.11
				c8.872,0,16.133,3.74,21.78,11.22c5.646,7.408,8.47,16.794,8.47,28.16c0,11.294-2.824,20.718-8.47,28.27
				c-5.647,7.408-12.908,11.11-21.78,11.11c-8.874,0-16.134-3.702-21.78-11.11C557.019,166.897,554.197,157.474,554.197,146.18z
				 M604.357,146.18c0-8.652-1.834-15.766-5.5-21.34c-3.594-5.572-8.397-8.359-14.41-8.359c-6.014,0-10.817,2.787-14.41,8.359
				c-3.668,5.574-5.5,12.688-5.5,21.34c0,8.654,1.832,15.805,5.5,21.45c3.593,5.5,8.396,8.25,14.41,8.25
				c6.013,0,10.816-2.786,14.41-8.36C602.523,161.873,604.357,154.76,604.357,146.18z"/>
			<path fill="#FAFAFA" d="M651.436,108.56v75.24h-10.12v-62.7l-14.63,6.381l-3.85-8.58l22.109-10.341H651.436z"/>
			<path fill="#FAFAFA" d="M713.805,118.9l-36.52,66.659l-9.021-4.62l34.87-62.699h-38.06l0.22-9.681h48.51V118.9z"/>
		</g>
	</g>
</g>
</svg>
