<?xml version="1.0" encoding="utf-8"?>
<!-- Generator: Adobe Illustrator 16.0.0, SVG Export Plug-In . SVG Version: 6.00 Build 0)  -->
<!DOCTYPE svg PUBLIC "-//W3C//DTD SVG 1.1//EN" "http://www.w3.org/Graphics/SVG/1.1/DTD/svg11.dtd">
<svg version="1.1" id="Layer_3" xmlns="http://www.w3.org/2000/svg" xmlns:xlink="http://www.w3.org/1999/xlink" x="0px" y="0px"
	 width="839px" height="214px" viewBox="0 0 839 214" enable-background="new 0 0 839 214" xml:space="preserve">
<g id="Layer_1">
	<title>logo-white</title>
	<desc>Created with Sketch.</desc>
	<g id="Page-1">
		<g id="logo-white">
			<g id="XMLID_261_">
				<polygon id="XMLID_259_" fill="#FFFFFF" points="32.3,0 0,0 92.3,160 108.5,132 				"/>
				<path id="XMLID_258_" fill="#FFFFFF" d="M120.9,91L68.3,0H36.1l74.3,128.8l10.5-18.2c1.7-2.8,2.802-6.2,2.802-9.8
					C123.6,97.2,122.6,93.9,120.9,91z"/>
				<polygon id="XMLID_257_" fill="#FFFFFF" points="56.3,104.1 0.9,200 33.2,200 72.5,132 				"/>
				<polygon id="XMLID_256_" fill="#FFFFFF" points="74.3,135.3 37,200 69.2,200 90.5,163.2 				"/>
			</g>
		</g>
	</g>
</g>
<g>
	<g>
		<path fill="#FFFFFF" d="M273.427,51.597c0,10.7-3.175,19.225-9.523,25.573c-7.134,7.562-16.515,11.342-28.141,11.342
			c-11.128,0-20.544-3.852-28.248-11.556s-11.556-17.19-11.556-28.462c0-11.27,3.852-20.758,11.556-28.462
			c7.704-7.704,17.12-11.556,28.248-11.556c5.634,0,10.949,1,15.943,2.996c4.991,1.998,9.095,4.815,12.305,8.453l-7.062,7.062
			c-2.354-2.852-5.403-5.083-9.148-6.688s-7.757-2.408-12.037-2.408c-8.346,0-15.408,2.889-21.186,8.667
			c-5.708,5.85-8.561,13.161-8.561,21.935c0,8.774,2.853,16.087,8.561,21.935c5.777,5.778,12.84,8.667,21.186,8.667
			c7.632,0,13.98-2.14,19.046-6.42c5.064-4.28,7.988-10.165,8.774-17.655h-27.82v-9.202h37.129
			C273.248,47.817,273.427,49.743,273.427,51.597z"/>
		<path fill="#FFFFFF" d="M285.411,86.8V10.188h23.433c11.698,0,21.096,3.531,28.194,10.593
			c7.097,7.062,10.646,16.301,10.646,27.713c0,11.486-3.549,20.741-10.646,27.767c-7.1,7.027-16.497,10.54-28.194,10.54
			L285.411,86.8L285.411,86.8z M295.255,19.604v57.78h13.589c8.916,0,15.943-2.55,21.079-7.65c5.136-5.099,7.704-12.18,7.704-21.24
			c0-8.988-2.568-16.05-7.704-21.186c-5.136-5.136-12.163-7.704-21.079-7.704H295.255z"/>
		<path fill="#FFFFFF" d="M433.071,51.597c0,10.7-3.176,19.225-9.522,25.573c-7.134,7.562-16.515,11.342-28.142,11.342
			c-11.128,0-20.544-3.852-28.247-11.556c-7.704-7.704-11.557-17.19-11.557-28.462c0-11.27,3.853-20.758,11.557-28.462
			c7.703-7.704,17.119-11.556,28.247-11.556c5.635,0,10.949,1,15.943,2.996c4.992,1.998,9.094,4.815,12.305,8.453l-7.062,7.062
			c-2.354-2.852-5.404-5.083-9.149-6.688s-7.757-2.408-12.037-2.408c-8.346,0-15.407,2.889-21.186,8.667
			c-5.708,5.85-8.56,13.161-8.56,21.935c0,8.774,2.852,16.087,8.56,21.935c5.778,5.778,12.84,8.667,21.186,8.667
			c7.633,0,13.98-2.14,19.047-6.42c5.063-4.28,7.987-10.165,8.773-17.655h-27.82v-9.202h37.129
			C432.891,47.817,433.071,49.743,433.071,51.597z"/>
		<path fill="#FFFFFF" d="M468.592,86.8V10.188h23.433c11.698,0,21.096,3.531,28.194,10.593
			c7.098,7.062,10.646,16.301,10.646,27.713c0,11.486-3.549,20.741-10.646,27.767c-7.1,7.027-16.496,10.54-28.194,10.54
			L468.592,86.8L468.592,86.8z M478.436,19.604v57.78h13.589c8.916,0,15.943-2.55,21.079-7.65c5.136-5.099,7.704-12.18,7.704-21.24
			c0-8.988-2.568-16.05-7.704-21.186c-5.136-5.136-12.163-7.704-21.079-7.704H478.436z"/>
		<path fill="#FFFFFF" d="M562.75,88.512c-7.703,0-14.054-2.638-19.046-7.918c-4.993-5.278-7.489-11.947-7.489-20.009
			c0-7.988,2.424-14.641,7.275-19.956c4.851-5.313,11.057-7.972,18.617-7.972c7.774,0,13.964,2.515,18.564,7.543
			c4.602,5.029,6.901,12.074,6.901,21.133l-0.106,1.07h-41.195c0.143,5.136,1.854,9.274,5.137,12.412
			c3.28,3.14,7.204,4.708,11.771,4.708c6.275,0,11.198-3.138,14.766-9.416l8.774,4.28c-2.354,4.424-5.617,7.883-9.79,10.379
			C572.755,87.263,568.03,88.512,562.75,88.512z M547.022,54.272h30.067c-0.286-3.638-1.767-6.651-4.44-9.042
			c-2.675-2.389-6.26-3.584-10.754-3.584c-3.71,0-6.901,1.142-9.576,3.424C549.644,47.354,547.878,50.42,547.022,54.272z"/>
		<path fill="#FFFFFF" d="M620.959,86.8h-9.845l-21.187-52.43h10.7l15.407,40.66h0.215l15.621-40.66h10.486L620.959,86.8z"/>
		<path fill="#FFFFFF" d="M660.334,53.951V86.8h-9.845V10.188h44.727v9.416h-34.882v25.145h31.457v9.202H660.334z"/>
		<path fill="#FFFFFF" d="M724.961,88.512c-7.704,0-14.055-2.638-19.047-7.918c-4.993-5.278-7.489-11.947-7.489-20.009
			c0-7.988,2.424-14.641,7.275-19.956c4.851-5.313,11.057-7.972,18.617-7.972c7.774,0,13.964,2.515,18.564,7.543
			c4.602,5.029,6.901,12.074,6.901,21.133l-0.106,1.07h-41.195c0.144,5.136,1.854,9.274,5.137,12.412
			c3.28,3.14,7.204,4.708,11.771,4.708c6.275,0,11.198-3.138,14.766-9.416l8.774,4.28c-2.354,4.424-5.617,7.883-9.79,10.379
			C734.965,87.263,730.24,88.512,724.961,88.512z M709.232,54.272h30.067c-0.286-3.638-1.767-6.651-4.44-9.042
			c-2.675-2.389-6.26-3.584-10.754-3.584c-3.71,0-6.901,1.142-9.576,3.424C711.854,47.354,710.088,50.42,709.232,54.272z"/>
		<path fill="#FFFFFF" d="M799.432,72.248c0,4.565-1.998,8.417-5.992,11.556c-3.996,3.138-9.023,4.708-15.087,4.708
			c-5.28,0-9.916-1.374-13.91-4.12c-3.996-2.745-6.848-6.366-8.56-10.86l8.772-3.745c1.284,3.14,3.156,5.583,5.618,7.33
			c2.461,1.749,5.152,2.622,8.078,2.622c3.138,0,5.76-0.677,7.864-2.033c2.104-1.354,3.155-2.959,3.155-4.815
			c0-3.352-2.566-5.813-7.702-7.383l-8.988-2.247c-10.202-2.568-15.301-7.49-15.301-14.766c0-4.778,1.941-8.613,5.831-11.502
			c3.887-2.889,8.861-4.333,14.927-4.333c4.636,0,8.827,1.107,12.572,3.317c3.745,2.212,6.365,5.173,7.863,8.881l-8.772,3.638
			c-1-2.21-2.622-3.94-4.869-5.189c-2.247-1.247-4.761-1.873-7.543-1.873c-2.568,0-4.869,0.642-6.901,1.926
			c-2.033,1.284-3.05,2.854-3.05,4.708c0,2.996,2.817,5.136,8.453,6.42l7.918,2.033C794.224,59.087,799.432,64.33,799.432,72.248z"
			/>
		<path fill="#FFFFFF" d="M828.214,87.656c-4.28,0-7.829-1.319-10.646-3.959c-2.817-2.638-4.264-6.313-4.334-11.021V43.358h-9.201
			V34.37h9.201V18.32h9.845v16.05h12.841v8.988h-12.841v26.108c0,3.496,0.678,5.868,2.033,7.116
			c1.354,1.249,2.889,1.872,4.602,1.872c0.783,0,1.552-0.088,2.301-0.267c0.749-0.177,1.443-0.41,2.086-0.696l3.104,8.774
			C834.634,87.191,831.638,87.656,828.214,87.656z"/>
	</g>
</g>
<g>
	<path fill="#FFFFFF" d="M229.392,121.664V192h-10.304v-70.336h-22.4v-9.856h55.104v9.856H229.392z"/>
	<path fill="#FFFFFF" d="M248.657,164.56c0-8.437,2.649-15.417,7.952-20.943c5.376-5.525,12.133-8.288,20.272-8.288
		c8.138,0,14.857,2.763,20.16,8.288c5.376,5.526,8.064,12.507,8.064,20.943c0,8.513-2.688,15.495-8.064,20.944
		c-5.303,5.526-12.022,8.288-20.16,8.288c-8.139,0-14.896-2.762-20.272-8.288C251.306,179.979,248.657,172.998,248.657,164.56z
		 M258.961,164.56c0,5.899,1.717,10.679,5.152,14.337c3.434,3.659,7.69,5.487,12.768,5.487c5.077,0,9.333-1.828,12.768-5.487
		c3.434-3.658,5.152-8.438,5.152-14.337c0-5.823-1.718-10.564-5.152-14.224c-3.51-3.732-7.767-5.6-12.768-5.6
		c-5.003,0-9.259,1.867-12.768,5.6C260.677,153.995,258.961,158.736,258.961,164.56z"/>
	<path fill="#FFFFFF" d="M362.226,192h-12.432l-17.136-25.872l-8.4,8.288V192h-10.304v-80.192h10.304V161.2l23.744-24.08h13.216
		v0.448l-21.392,21.279l22.4,32.704V192z"/>
	<path fill="#FFFFFF" d="M417.105,137.12l-34.384,79.072h-10.64l12.768-27.664l-22.624-51.408h11.2l16.352,39.424h0.224
		l15.904-39.424H417.105z"/>
	<path fill="#FFFFFF" d="M418.448,164.56c0-8.437,2.65-15.417,7.952-20.943c5.376-5.525,12.133-8.288,20.272-8.288
		c8.137,0,14.857,2.763,20.159,8.288c5.377,5.526,8.064,12.507,8.064,20.943c0,8.513-2.688,15.495-8.064,20.944
		c-5.302,5.526-12.022,8.288-20.159,8.288c-8.14,0-14.896-2.762-20.272-8.288C421.098,179.979,418.448,172.998,418.448,164.56z
		 M428.752,164.56c0,5.899,1.717,10.679,5.151,14.337c3.434,3.659,7.69,5.487,12.769,5.487c5.076,0,9.332-1.828,12.768-5.487
		c3.434-3.658,5.152-8.438,5.152-14.337c0-5.823-1.719-10.564-5.152-14.224c-3.51-3.732-7.767-5.6-12.768-5.6
		c-5.004,0-9.26,1.867-12.769,5.6C430.469,153.995,428.752,158.736,428.752,164.56z"/>
	<path fill="#FFFFFF" d="M555.982,182.144V192h-48.831v-10.304l19.823-20.048c6.646-6.794,11.237-11.89,13.776-15.288
		c2.537-3.397,3.808-6.962,3.808-10.696c0-3.36-1.307-6.233-3.92-8.624c-2.614-2.389-5.975-3.584-10.08-3.584
		c-3.51,0-6.534,1.047-9.071,3.136c-2.54,2.092-4.183,4.631-4.929,7.616l-9.407-3.808c1.492-4.704,4.367-8.681,8.623-11.929
		c4.257-3.248,9.258-4.872,15.009-4.872c6.943,0,12.729,2.128,17.359,6.385c4.629,4.256,6.944,9.482,6.944,15.68
		c0,7.392-4.07,15.383-12.208,23.968l-22.4,22.512H555.982z"/>
	<path fill="#FFFFFF" d="M565.836,153.696c0-11.648,2.874-21.242,8.624-28.784c5.749-7.541,13.141-11.312,22.176-11.312
		c9.034,0,16.426,3.809,22.177,11.425c5.748,7.542,8.624,17.099,8.624,28.672c0,11.499-2.876,21.094-8.624,28.784
		c-5.751,7.542-13.143,11.312-22.177,11.312c-9.035,0-16.427-3.77-22.176-11.312C568.71,174.79,565.836,165.195,565.836,153.696z
		 M616.908,153.696c0-8.81-1.867-16.053-5.6-21.729c-3.659-5.673-8.551-8.512-14.673-8.512c-6.123,0-11.014,2.839-14.672,8.512
		c-3.734,5.676-5.6,12.919-5.6,21.729c0,8.811,1.865,16.091,5.6,21.84c3.658,5.6,8.549,8.399,14.672,8.399
		c6.122,0,11.014-2.836,14.673-8.512C615.041,169.675,616.908,162.432,616.908,153.696z"/>
	<path fill="#FFFFFF" d="M664.844,115.392V192H654.54v-63.84l-14.896,6.496l-3.92-8.736l22.512-10.528H664.844z"/>
	<path fill="#FFFFFF" d="M728.346,125.92l-37.184,67.872l-9.185-4.704l35.505-63.84h-38.752l0.224-9.856h49.392V125.92z"/>
</g>
</svg>
