<?xml version="1.0" encoding="UTF-8" standalone="no"?>
<svg width="839px" height="214px" viewBox="0 0 839 214" version="1.1" xmlns="http://www.w3.org/2000/svg" xmlns:xlink="http://www.w3.org/1999/xlink">
    <!-- Generator: Sketch 46.2 (44496) - http://www.bohemiancoding.com/sketch -->
    <title>logo-white</title>
    <desc>Created with Sketch.</desc>
    <defs></defs>
    <g id="Page-1" stroke="none" stroke-width="1" fill="none" fill-rule="evenodd">
        <g id="logo-white" fill="#FFFFFF">
            <g id="XMLID_7_" transform="translate(196.000000, 7.000000)" fill-rule="nonzero">
                <path d="M79.5,44.8 C79.5,55.7 76.3,64.5 69.8,70.9 C62.4,78.6 52.8,82.5 41,82.5 C29.7,82.5 20.1,78.6 12.2,70.7 C4.3,62.9 0.3,53.1 0.3,41.6 C0.3,30.1 4.3,20.3 12.2,12.5 C20.1,4.7 29.7,0.7 41,0.7 C46.6,0.7 52,1.8 57.1,4 C62.2,6.2 66.3,9.1 69.3,12.8 L62.4,19.7 C57.2,13.5 50.1,10.4 41,10.4 C32.8,10.4 25.6,13.3 19.6,19.1 C13.6,24.9 10.6,32.4 10.6,41.7 C10.6,51 13.6,58.5 19.6,64.3 C25.6,70.1 32.7,73 41,73 C49.8,73 57,70.1 62.9,64.2 C66.7,60.4 68.9,55.1 69.5,48.3 L41,48.3 L41,38.9 L79,38.9 C79.3,41 79.5,42.9 79.5,44.8 L79.5,44.8 Z" id="XMLID_2_"></path>
                <path d="M89.4,80.8 L89.4,2.5 L113.4,2.5 C125.4,2.5 135.1,6.1 142.3,13.4 C149.5,20.7 153.1,30.1 153.1,41.7 C153.1,53.3 149.5,62.7 142.3,70 C135.1,77.3 125.5,80.9 113.4,80.9 L89.4,80.9 L89.4,80.8 Z M99.5,71.2 L113.4,71.2 C122.4,71.2 129.6,68.6 134.9,63.4 C140.2,58.2 142.8,51 142.8,41.6 C142.8,32.3 140.2,25.1 134.9,19.9 C129.6,14.7 122.4,12.1 113.4,12.1 L99.5,12.1 L99.5,71.2 L99.5,71.2 Z" id="XMLID_4_"></path>
                <path d="M238.5,44.8 C238.5,55.7 235.3,64.5 228.8,70.9 C221.4,78.6 211.8,82.5 200,82.5 C188.7,82.5 179.1,78.6 171.2,70.7 C163.3,62.9 159.3,53.1 159.3,41.6 C159.3,30.1 163.3,20.3 171.2,12.5 C179.1,4.7 188.7,0.7 200,0.7 C205.6,0.7 211,1.8 216.1,4 C221.2,6.2 225.3,9.1 228.3,12.8 L221.4,19.7 C216.2,13.5 209.1,10.4 200,10.4 C191.8,10.4 184.6,13.3 178.6,19.1 C172.6,24.9 169.6,32.4 169.6,41.7 C169.6,51 172.6,58.5 178.6,64.3 C184.6,70.1 191.7,73 200,73 C208.8,73 216,70.1 221.9,64.2 C225.7,60.4 227.9,55.1 228.5,48.3 L200,48.3 L200,38.9 L238,38.9 C238.3,41 238.5,42.9 238.5,44.8 L238.5,44.8 Z" id="XMLID_8_"></path>
                <path d="M274.8,80.8 L274.8,2.5 L298.8,2.5 C310.8,2.5 320.5,6.1 327.7,13.4 C334.9,20.7 338.5,30.1 338.5,41.7 C338.5,53.3 334.9,62.7 327.7,70 C320.5,77.3 310.9,80.9 298.8,80.9 L274.8,80.9 L274.8,80.8 Z M284.9,71.2 L298.8,71.2 C307.8,71.2 315,68.6 320.3,63.4 C325.6,58.2 328.2,51 328.2,41.6 C328.2,32.3 325.6,25.1 320.3,19.9 C315,14.7 307.8,12.1 298.8,12.1 L284.9,12.1 L284.9,71.2 L284.9,71.2 Z" id="XMLID_10_"></path>
                <path d="M371.4,82.6 C363.3,82.6 356.7,79.9 351.7,74.5 C346.6,69.1 344.1,62.3 344.1,54 C344.1,46.2 346.6,39.5 351.5,33.9 C356.4,28.3 362.7,25.5 370.4,25.5 C378.3,25.5 384.7,28.1 389.5,33.3 C394.3,38.5 396.7,45.4 396.7,54.1 L396.6,56 L354.3,56 C354.6,61.4 356.4,65.7 359.7,68.8 C363,71.9 366.9,73.5 371.3,73.5 C378.5,73.5 383.4,70.4 386,64.3 L395,68 C393.2,72.2 390.4,75.6 386.4,78.4 C382.2,81.2 377.3,82.6 371.4,82.6 L371.4,82.6 Z M385.9,47.6 C385.7,44.5 384.3,41.6 381.7,38.8 C379.1,36 375.3,34.6 370.2,34.6 C366.5,34.6 363.3,35.8 360.5,38.1 C357.8,40.4 355.9,43.6 354.9,47.5 L385.9,47.5 L385.9,47.6 Z" id="XMLID_13_"></path>
                <polygon id="XMLID_16_" points="417.7 80.8 396 27.2 407 27.2 422.8 68.8 423 68.8 439 27.2 449.7 27.2 427.8 80.8 417.7 80.8"></polygon>
                <polygon id="XMLID_18_" points="465.6 80.8 455.5 80.8 455.5 2.5 501.2 2.5 501.2 12.1 465.5 12.1 465.5 37.8 497.7 37.8 497.7 47.2 465.5 47.2 465.5 80.8"></polygon>
                <path d="M531.7,82.6 C523.6,82.6 517,79.9 512,74.5 C506.9,69.1 504.4,62.3 504.4,54 C504.4,46.2 506.9,39.5 511.8,33.9 C516.7,28.3 523,25.5 530.7,25.5 C538.6,25.5 545,28.1 549.8,33.3 C554.6,38.5 557,45.4 557,54.1 L556.9,56 L514.6,56 C514.9,61.4 516.7,65.7 520,68.8 C523.3,71.9 527.2,73.5 531.6,73.5 C538.8,73.5 543.7,70.4 546.3,64.3 L555.3,68 C553.5,72.2 550.7,75.6 546.7,78.4 C542.4,81.2 537.5,82.6 531.7,82.6 L531.7,82.6 Z M546.1,47.6 C545.9,44.5 544.5,41.6 541.9,38.8 C539.3,36 535.5,34.6 530.4,34.6 C526.7,34.6 523.5,35.8 520.7,38.1 C518,40.4 516.1,43.6 515.1,47.5 L546.1,47.5 L546.1,47.6 Z" id="XMLID_20_"></path>
                <path d="M583.5,82.6 C577.5,82.6 572.6,81.1 568.7,78.2 C564.8,75.3 561.9,71.6 560.1,67.3 L569.1,63.6 C571.9,70.3 576.8,73.7 583.6,73.7 C586.7,73.7 589.3,73 591.3,71.6 C593.3,70.2 594.3,68.4 594.3,66.1 C594.3,62.6 591.9,60.2 587,59 L576.2,56.4 C572.8,55.5 569.5,53.9 566.5,51.4 C563.4,49 561.9,45.7 561.9,41.5 C561.9,36.8 564,32.9 568.2,30 C572.4,27 577.4,25.6 583.1,25.6 C587.8,25.6 592.1,26.7 595.8,28.8 C599.5,31 602.2,34 603.8,38 L595,41.6 C593,36.9 588.9,34.5 582.8,34.5 C579.8,34.5 577.3,35.1 575.3,36.4 C573.3,37.6 572.2,39.3 572.2,41.4 C572.2,44.5 574.6,46.5 579.3,47.6 L589.9,50.1 C594.9,51.3 598.7,53.3 601.1,56.1 C603.5,58.9 604.7,62.2 604.7,65.7 C604.7,70.5 602.7,74.5 598.8,77.7 C594.8,81 589.7,82.6 583.5,82.6 L583.5,82.6 Z" id="XMLID_27_"></path>
                <path d="M634.9,81.7 C629.3,81.7 625,80.2 622,77.2 C619,74.2 617.6,70 617.6,64.5 L617.6,36.4 L608.2,36.4 L608.2,27.2 L617.6,27.2 L617.6,10.8 L627.7,10.8 L627.7,27.2 L640.8,27.2 L640.8,36.4 L627.7,36.4 L627.7,63.7 C627.7,69.5 630.1,72.5 634.9,72.5 C636.7,72.5 638.3,72.2 639.5,71.6 L643,80.2 C640.8,81.2 638.1,81.7 634.9,81.7 L634.9,81.7 Z" id="XMLID_29_"></path>
            </g>
            <g id="XMLID_261_" fill-rule="nonzero">
                <polygon id="XMLID_259_" points="32.3 0 0 0 92.3 160 108.5 132"></polygon>
                <path d="M120.9,91 L68.3,0 L36.1,0 L110.4,128.8 L120.9,110.6 C122.6,107.8 123.7,104.4 123.7,100.8 C123.6,97.2 122.6,93.9 120.9,91 Z" id="XMLID_258_"></path>
                <polygon id="XMLID_257_" points="56.3 104.1 0.9 200 33.2 200 72.5 132"></polygon>
                <polygon id="XMLID_256_" points="74.3 135.3 37 200 69.2 200 90.5 163.2"></polygon>
            </g>
            <text id="Japan-2017" font-family="ProductSans-Regular, Product Sans" font-size="107" font-weight="normal">
                <tspan x="196" y="190">Japan 2017</tspan>
            </text>
        </g>
    </g>
</svg>