<?xml version="1.0" encoding="utf-8"?>
<!-- Generator: Adobe Illustrator 16.0.0, SVG Export Plug-In . SVG Version: 6.00 Build 0)  -->
<!DOCTYPE svg PUBLIC "-//W3C//DTD SVG 1.1//EN" "http://www.w3.org/Graphics/SVG/1.1/DTD/svg11.dtd">
<svg version="1.1" id="Layer_3" xmlns="http://www.w3.org/2000/svg" xmlns:xlink="http://www.w3.org/1999/xlink" x="0px" y="0px"
	 width="839px" height="214px" viewBox="0 0 839 214" enable-background="new 0 0 839 214" xml:space="preserve">
<g id="Layer_1">
	<title>logo-white</title>
	<desc>Created with Sketch.</desc>
	<g id="Page-1">
		<g id="logo-white">
			<g id="XMLID_261_">
				<polygon id="XMLID_259_" fill="#FFFFFF" points="32.3,0 0,0 92.3,160 108.5,132 				"/>
				<path id="XMLID_258_" fill="#FFFFFF" d="M120.9,91L68.3,0H36.1l74.3,128.8l10.5-18.2c1.7-2.8,2.801-6.2,2.801-9.8
					C123.6,97.2,122.6,93.9,120.9,91z"/>
				<polygon id="XMLID_257_" fill="#FFFFFF" points="56.3,104.1 0.9,200 33.2,200 72.5,132 				"/>
				<polygon id="XMLID_256_" fill="#FFFFFF" points="74.3,135.3 37,200 69.2,200 90.5,163.2 				"/>
			</g>
		</g>
	</g>
</g>
<g>
	<g>
		<path fill="#FFFFFF" d="M273.427,51.597c0,10.7-3.175,19.225-9.523,25.573c-7.134,7.562-16.515,11.342-28.141,11.342
			c-11.128,0-20.544-3.852-28.248-11.556c-7.704-7.704-11.556-17.19-11.556-28.462c0-11.27,3.852-20.758,11.556-28.462
			s17.12-11.556,28.248-11.556c5.634,0,10.949,1,15.943,2.996c4.992,1.998,9.095,4.815,12.305,8.453l-7.062,7.062
			c-2.354-2.852-5.404-5.083-9.149-6.688c-3.745-1.605-7.757-2.408-12.037-2.408c-8.346,0-15.408,2.889-21.186,8.667
			c-5.708,5.85-8.56,13.161-8.56,21.935s2.852,16.087,8.56,21.935c5.778,5.778,12.84,8.667,21.186,8.667
			c7.632,0,13.98-2.14,19.046-6.42c5.064-4.28,7.988-10.165,8.774-17.655h-27.82v-9.202h37.129
			C273.248,47.817,273.427,49.743,273.427,51.597z"/>
		<path fill="#FFFFFF" d="M285.411,86.8V10.188h23.433c11.698,0,21.096,3.531,28.194,10.593
			c7.097,7.062,10.646,16.301,10.646,27.713c0,11.486-3.549,20.741-10.646,27.767c-7.099,7.027-16.497,10.54-28.194,10.54H285.411z
			 M295.255,19.604v57.78h13.589c8.916,0,15.943-2.55,21.079-7.65c5.136-5.099,7.704-12.18,7.704-21.24
			c0-8.988-2.568-16.05-7.704-21.186c-5.136-5.136-12.163-7.704-21.079-7.704H295.255z"/>
		<path fill="#FFFFFF" d="M433.071,51.597c0,10.7-3.176,19.225-9.523,25.573c-7.134,7.562-16.515,11.342-28.141,11.342
			c-11.128,0-20.544-3.852-28.248-11.556c-7.704-7.704-11.556-17.19-11.556-28.462c0-11.27,3.852-20.758,11.556-28.462
			s17.12-11.556,28.248-11.556c5.634,0,10.949,1,15.943,2.996c4.992,1.998,9.094,4.815,12.305,8.453l-7.062,7.062
			c-2.354-2.852-5.404-5.083-9.149-6.688c-3.745-1.605-7.757-2.408-12.037-2.408c-8.346,0-15.408,2.889-21.186,8.667
			c-5.708,5.85-8.56,13.161-8.56,21.935s2.852,16.087,8.56,21.935c5.778,5.778,12.84,8.667,21.186,8.667
			c7.632,0,13.98-2.14,19.046-6.42c5.064-4.28,7.988-10.165,8.774-17.655h-27.82v-9.202h37.129
			C432.891,47.817,433.071,49.743,433.071,51.597z"/>
		<path fill="#FFFFFF" d="M468.592,86.8V10.188h23.433c11.698,0,21.096,3.531,28.194,10.593
			c7.098,7.062,10.646,16.301,10.646,27.713c0,11.486-3.549,20.741-10.646,27.767c-7.099,7.027-16.496,10.54-28.194,10.54H468.592z
			 M478.436,19.604v57.78h13.589c8.916,0,15.943-2.55,21.079-7.65c5.136-5.099,7.704-12.18,7.704-21.24
			c0-8.988-2.568-16.05-7.704-21.186c-5.136-5.136-12.163-7.704-21.079-7.704H478.436z"/>
		<path fill="#FFFFFF" d="M562.751,88.512c-7.704,0-14.054-2.638-19.046-7.918c-4.994-5.278-7.49-11.947-7.49-20.009
			c0-7.988,2.424-14.641,7.276-19.956c4.85-5.313,11.056-7.972,18.617-7.972c7.774,0,13.964,2.515,18.564,7.543
			c4.602,5.029,6.902,12.074,6.902,21.133l-0.107,1.07h-41.195c0.143,5.136,1.854,9.274,5.137,12.412
			c3.28,3.14,7.204,4.708,11.77,4.708c6.276,0,11.198-3.138,14.766-9.416l8.774,4.28c-2.354,4.424-5.617,7.883-9.79,10.379
			C572.755,87.263,568.03,88.512,562.751,88.512z M547.022,54.272h30.067c-0.286-3.638-1.766-6.651-4.44-9.042
			c-2.675-2.389-6.26-3.584-10.754-3.584c-3.71,0-6.901,1.142-9.576,3.424C549.644,47.354,547.878,50.42,547.022,54.272z"/>
		<path fill="#FFFFFF" d="M620.959,86.8h-9.844l-21.187-52.43h10.7l15.408,40.66h0.214l15.622-40.66h10.486L620.959,86.8z"/>
		<path fill="#FFFFFF" d="M660.334,53.951V86.8h-9.844V10.188h44.726v9.416h-34.882v25.145h31.458v9.202H660.334z"/>
		<path fill="#FFFFFF" d="M724.961,88.512c-7.704,0-14.054-2.638-19.046-7.918c-4.994-5.278-7.49-11.947-7.49-20.009
			c0-7.988,2.424-14.641,7.276-19.956c4.85-5.313,11.056-7.972,18.617-7.972c7.774,0,13.964,2.515,18.564,7.543
			c4.602,5.029,6.902,12.074,6.902,21.133l-0.107,1.07h-41.195c0.143,5.136,1.854,9.274,5.137,12.412
			c3.28,3.14,7.204,4.708,11.77,4.708c6.276,0,11.198-3.138,14.766-9.416l8.774,4.28c-2.354,4.424-5.617,7.883-9.79,10.379
			C734.965,87.263,730.24,88.512,724.961,88.512z M709.232,54.272h30.067c-0.286-3.638-1.766-6.651-4.44-9.042
			c-2.675-2.389-6.26-3.584-10.754-3.584c-3.71,0-6.901,1.142-9.576,3.424C711.854,47.354,710.088,50.42,709.232,54.272z"/>
		<path fill="#FFFFFF" d="M799.432,72.248c0,4.565-1.998,8.417-5.992,11.556c-3.996,3.138-9.024,4.708-15.087,4.708
			c-5.28,0-9.916-1.374-13.91-4.12c-3.996-2.745-6.848-6.366-8.56-10.86l8.773-3.745c1.284,3.14,3.156,5.583,5.618,7.33
			c2.461,1.749,5.152,2.622,8.078,2.622c3.138,0,5.76-0.677,7.864-2.033c2.104-1.354,3.156-2.959,3.156-4.815
			c0-3.352-2.567-5.813-7.703-7.383l-8.988-2.247c-10.202-2.568-15.301-7.49-15.301-14.766c0-4.778,1.942-8.613,5.831-11.502
			c3.887-2.889,8.862-4.333,14.927-4.333c4.636,0,8.827,1.107,12.572,3.317c3.745,2.212,6.366,5.173,7.864,8.881l-8.773,3.638
			c-1-2.21-2.622-3.94-4.869-5.189c-2.247-1.247-4.761-1.873-7.543-1.873c-2.568,0-4.869,0.642-6.901,1.926
			c-2.033,1.284-3.05,2.854-3.05,4.708c0,2.996,2.817,5.136,8.453,6.42l7.918,2.033C794.224,59.087,799.432,64.33,799.432,72.248z"
			/>
		<path fill="#FFFFFF" d="M828.214,87.656c-4.28,0-7.829-1.319-10.646-3.959c-2.818-2.638-4.264-6.313-4.334-11.021V43.358h-9.201
			V34.37h9.201V18.32h9.845v16.05h12.84v8.988h-12.84v26.108c0,3.496,0.677,5.868,2.033,7.116c1.354,1.249,2.889,1.872,4.601,1.872
			c0.784,0,1.552-0.088,2.301-0.267c0.749-0.177,1.444-0.41,2.086-0.696l3.104,8.774C834.634,87.191,831.638,87.656,828.214,87.656z
			"/>
		<path fill="#FFFFFF" d="M218.429,192.512c-5.778,0-10.772-1.57-14.98-4.708c-4.21-3.138-7.169-7.489-8.881-13.054l9.309-3.852
			c2.424,8.131,7.276,12.197,14.552,12.197c3.994,0,7.222-1.408,9.683-4.227c2.461-2.816,3.692-6.473,3.692-10.967v-53.715h9.844
			v52.858c0,7.918-2.086,14.142-6.259,18.671C231.216,190.248,225.561,192.512,218.429,192.512z"/>
		<path fill="#FFFFFF" d="M273.961,136.658c7.276,0,13.017,1.943,17.227,5.831c4.208,3.889,6.313,9.22,6.313,15.997V190.8h-9.416
			v-7.276h-0.428c-4.066,5.992-9.488,8.988-16.264,8.988c-5.778,0-10.611-1.712-14.499-5.136c-3.889-3.425-5.832-7.704-5.832-12.841
			c0-5.42,2.05-9.736,6.152-12.946c4.101-3.21,9.577-4.815,16.425-4.815c5.848,0,10.663,1.07,14.445,3.211v-2.248
			c0-3.424-1.356-6.329-4.066-8.721c-2.712-2.389-5.885-3.584-9.523-3.584c-5.494,0-9.844,2.318-13.054,6.955l-8.667-5.457
			C257.553,140.082,264.615,136.658,273.961,136.658z M261.228,174.75c0,2.568,1.086,4.708,3.263,6.42
			c2.175,1.712,4.725,2.568,7.651,2.568c4.136,0,7.828-1.533,11.074-4.602c3.245-3.066,4.869-6.669,4.869-10.807
			c-3.068-2.424-7.348-3.639-12.84-3.639c-3.996,0-7.33,0.963-10.005,2.889C262.565,169.507,261.228,171.897,261.228,174.75z"/>
		<path fill="#FFFFFF" d="M335.913,192.512c-3.852,0-7.366-0.82-10.54-2.461c-3.175-1.641-5.617-3.815-7.329-6.527h-0.428
			l0.428,7.276v23.112H308.2v-75.543h9.416v7.277h0.428c1.712-2.711,4.154-4.886,7.329-6.527c3.173-1.641,6.688-2.461,10.54-2.461
			c6.918,0,12.768,2.711,17.548,8.132c4.922,5.493,7.383,12.091,7.383,19.795c0,7.776-2.461,14.374-7.383,19.795
			C348.681,189.802,342.832,192.512,335.913,192.512z M334.308,183.523c4.708,0,8.667-1.781,11.877-5.35
			c3.21-3.494,4.815-8.025,4.815-13.589c0-5.492-1.605-10.021-4.815-13.589c-3.21-3.566-7.169-5.35-11.877-5.35
			c-4.78,0-8.774,1.783-11.984,5.35c-3.14,3.567-4.708,8.097-4.708,13.589c0,5.563,1.568,10.13,4.708,13.696
			C325.534,181.777,329.529,183.523,334.308,183.523z"/>
		<path fill="#FFFFFF" d="M389.733,136.658c7.276,0,13.017,1.943,17.227,5.831c4.208,3.889,6.313,9.22,6.313,15.997V190.8h-9.416
			v-7.276h-0.428c-4.066,5.992-9.488,8.988-16.264,8.988c-5.778,0-10.611-1.712-14.499-5.136c-3.889-3.425-5.832-7.704-5.832-12.841
			c0-5.42,2.05-9.736,6.152-12.946c4.101-3.21,9.577-4.815,16.425-4.815c5.848,0,10.663,1.07,14.445,3.211v-2.248
			c0-3.424-1.356-6.329-4.066-8.721c-2.712-2.389-5.885-3.584-9.523-3.584c-5.494,0-9.844,2.318-13.054,6.955l-8.667-5.457
			C373.325,140.082,380.387,136.658,389.733,136.658z M377,174.75c0,2.568,1.086,4.708,3.263,6.42
			c2.175,1.712,4.725,2.568,7.651,2.568c4.136,0,7.828-1.533,11.074-4.602c3.245-3.066,4.869-6.669,4.869-10.807
			c-3.068-2.424-7.348-3.639-12.84-3.639c-3.996,0-7.33,0.963-10.005,2.889C378.338,169.507,377,171.897,377,174.75z"/>
		<path fill="#FFFFFF" d="M424.401,138.369h9.416v7.277h0.428c1.498-2.568,3.799-4.709,6.901-6.421
			c3.104-1.712,6.33-2.567,9.684-2.567c6.42,0,11.358,1.837,14.819,5.51c3.459,3.676,5.189,8.9,5.189,15.676V190.8h-9.844v-32.313
			c-0.214-8.561-4.53-12.84-12.947-12.84c-3.924,0-7.205,1.588-9.844,4.761c-2.64,3.175-3.959,6.974-3.959,11.396V190.8h-9.844
			V138.369z"/>
		<path fill="#FFFFFF" d="M550.872,181.384v9.416h-46.651v-9.845l18.938-19.152c6.349-6.49,10.735-11.359,13.161-14.605
			c2.425-3.245,3.638-6.65,3.638-10.219c0-3.209-1.248-5.955-3.744-8.238c-2.498-2.283-5.708-3.424-9.631-3.424
			c-3.354,0-6.242,0.999-8.667,2.996c-2.426,1.997-3.995,4.423-4.708,7.275l-8.987-3.639c1.426-4.494,4.173-8.292,8.238-11.395
			c4.066-3.104,8.845-4.654,14.339-4.654c6.634,0,12.161,2.032,16.585,6.099c4.422,4.065,6.634,9.06,6.634,14.979
			c0,7.062-3.889,14.696-11.663,22.898l-21.4,21.507H550.872z"/>
		<path fill="#FFFFFF" d="M560.287,154.205c0-11.127,2.745-20.293,8.239-27.498c5.492-7.204,12.554-10.807,21.186-10.807
			c8.631,0,15.692,3.637,21.187,10.914c5.492,7.205,8.238,16.336,8.238,27.391c0,10.986-2.746,20.153-8.238,27.5
			c-5.494,7.205-12.556,10.807-21.187,10.807c-8.632,0-15.693-3.602-21.186-10.807C563.032,174.358,560.287,165.191,560.287,154.205
			z M609.079,154.205c0-8.416-1.784-15.336-5.35-20.758c-3.496-5.42-8.169-8.131-14.018-8.131c-5.85,0-10.522,2.711-14.017,8.131
			c-3.568,5.422-5.351,12.342-5.351,20.758c0,8.418,1.782,15.373,5.351,20.865c3.494,5.351,8.167,8.025,14.017,8.025
			c5.849,0,10.521-2.71,14.018-8.132C607.295,169.472,609.079,162.552,609.079,154.205z"/>
		<path fill="#FFFFFF" d="M654.874,117.611V190.8h-9.844v-60.99l-14.23,6.206l-3.745-8.346l21.507-10.059H654.874z"/>
		<path fill="#FFFFFF" d="M715.541,127.67l-35.523,64.842l-8.774-4.494l33.919-60.99h-37.021l0.214-9.416h47.187V127.67z"/>
	</g>
</g>
</svg>
